PathFileType	4	(X/Y/Z)	C:/Users/beibeiliu/ov580/test_trc/User1\sequence.26_training_dense_right.trc
DataRate	CameraRate	NumFrames	NumMarkers	Units	OrigDataRate	OrigDataStartFrame	OrigNumFrames
120	120	20	19	mm	120	1	330
Frame#	Time	ThumbCMC			ThumbMCP			ThumbIP			ThumbTip			IndexMCP			IndexPIP			IndexTip			MiddleMCP			MiddlePIP			MiddleTip			RingMCP			RingPIP			RingTip			PinkyMCP			PinkyPIP			PinkyTip			BackHand1			BackHand2			BackHand3	
		X0	Y0	Z0	X1	Y1	Z1	X2	Y2	Z2	X3	Y3	Z3	X4	Y4	Z4	X5	Y5	Z5	X6	Y6	Z6	X7	Y7	Z7	X8	Y8	Z8	X9	Y9	Z9	X10	Y10	Z10	X11	Y11	Z11	X12	Y12	Z12	X13	Y13	Z13	X14	Y14	Z14	X15	Y15	Z15	X16	Y16	Z16	X17	Y17	Z17	X18	Y18	Z18	
0	0	126.846	-17.908	49.7623	96.4609	-27.7746	38.1329	77.9999	-36.4672	18.7024	61.1792	-43.2813	8.1164	137.715	-28.7	-36.3723	136.254	-35.5183	-64.612	134.641	-38.729	-85.8506	169.405	-28.4934	-43.661	166.221	-33.8136	-71.5278	171.456	-42.6556	-101.263	191.165	-35.4305	-35.3182	195.84	-38.9348	-63.1279	202.495	-46.1754	-88.416	213.441	-50.1524	-12.9039	226.626	-55.618	-27.1185	240.483	-54.9639	-42.9143	188.539	-19.0365	15.2961	190.545	-4.62847	47.593	156.182	-5.16494	30.6098	
1	0.00833333	123.909	-18.2907	44.8516	100.61	-28.8771	37.8004	79.1691	-36.3194	16.3865	59.3576	-41.1398	11.4295	137.384	-29.4465	-36.65	133.932	-33.9066	-64.5777	137.992	-40.1111	-89.8953	165.227	-28.2601	-43.251	165.018	-34.4227	-75.8314	170.244	-41.9672	-103.612	188.853	-34.7588	-38.1349	199.437	-39.2477	-60.0281	200.6	-46.3379	-88.6432	212.164	-50.204	-12.8562	227.05	-55.6924	-28.4308	238.511	-55.4059	-48.6191	187.89	-19.496	15.1817	190.33	-5.77112	47.0469	155.228	-4.76465	26.9339	
2	0.0166667	123.334	-16.3033	49.9197	100.128	-29.036	35.1658	77.9524	-34.7468	17.5208	61.251	-40.4978	8.4928	137.504	-28.2873	-37.216	132.893	-32.3437	-61.137	138.049	-38.9715	-87.1018	165.228	-27.8196	-48.4942	164.475	-33.1599	-75.5414	170.335	-41.5229	-105.076	191.318	-34.1312	-36.5616	195.092	-37.7996	-60.7583	200.694	-46.3542	-87.4543	212.78	-48.3344	-14.6801	225.079	-55.0484	-26.5512	236.335	-53.2334	-45.2611	188.57	-18.6633	13.9158	193.097	-5.1156	44.0351	157.149	-3.43636	28.148	
3	0.025	122.002	-16.1743	47.399	98.5525	-27.0618	38.3129	78.3705	-34.4225	15.8989	58.9452	-39.6457	8.83696	135.25	-26.7124	-35.2349	132.747	-32.4444	-65.2029	138.839	-38.5746	-88.6664	168.896	-26.7875	-45.9973	168.078	-32.8146	-76.2298	171.995	-41.3094	-102.964	189.839	-32.1357	-38.4379	196.688	-36.7773	-64.5807	199.113	-45.2652	-88.218	212.055	-47.3346	-13.7268	222.686	-53.561	-25.7341	239.215	-52.6253	-47.7444	185.912	-15.7658	13.6056	191.417	-5.67865	47.4179	153.053	-4.11567	25.3242	
4	0.0333333	120.898	-15.1263	46.3948	99.3827	-26.9987	37.1977	78.5119	-33.1747	17.5087	59.5023	-39.5691	7.59626	136.817	-26.2949	-38.7419	132.715	-30.3273	-61.9363	138.995	-38.2788	-87.6338	164.071	-24.7838	-42.6231	165.694	-32.1138	-75.8184	168.699	-38.7265	-101.325	188.633	-32.2048	-33.3178	193.81	-36.0354	-65.1417	199.676	-43.2019	-89.5048	212.298	-46.7426	-10.4183	225.561	-52.5996	-29.5869	239.141	-53.2082	-48.2079	186.428	-15.4108	17.2551	194.238	-3.60248	47.1967	158.359	-3.56577	29.3459	
5	0.0416667	121.156	-15.9042	45.2645	100.783	-27.8771	35.9735	81.2632	-33.9484	20.8122	61.6417	-39.3239	10.055	133.917	-25.7864	-37.2449	136.995	-31.0018	-64.5665	133.399	-35.9417	-90.8869	166.565	-24.6016	-42.9582	168.24	-30.2175	-72.4926	168.305	-37.5626	-99.8882	188.111	-31.288	-37.2037	196.727	-34.793	-61.736	197.271	-42.5586	-85.8312	214.907	-46.8161	-13.1901	222.389	-50.8439	-27.5751	241.256	-50.8396	-48.4979	190.326	-16.7886	14.6284	191.025	-4.55937	44.6696	157.603	-4.00559	25.4107	
6	0.05	122.949	-16.1156	45.8028	97.3808	-25.1164	37.7958	75.7231	-31.4188	19.3241	57.9989	-37.5278	12.4867	134.747	-25.1655	-37.8396	131.365	-29.2546	-65.0966	138.301	-35.8358	-89.8159	163.305	-23.1995	-44.7542	165.13	-29.6347	-72.9632	168.364	-37.3566	-102.094	191.716	-30.3186	-36.9686	197.242	-34.277	-62.1789	200.33	-41.7365	-85.8974	210.99	-44.9522	-12.4133	226.337	-51.9419	-27.7462	240.868	-50.6034	-48.8796	186.441	-13.545	16.6969	188.268	-3.06781	46.6322	154.767	-3.29678	26.0074	
7	0.0583333	122.052	-14.0175	50.0782	97.4211	-24.4498	37.4299	76.9664	-30.8749	20.1207	57.2685	-36.0522	10.5966	132.527	-22.9921	-38.2934	134.068	-29.5085	-66.7484	135.574	-33.9744	-92.3454	165.039	-23.4689	-46.4435	164.976	-29.1799	-74.5854	170.972	-36.9781	-106.007	192.047	-30.348	-37.5731	198.138	-33.905	-63.4592	197.33	-40.0862	-86.422	210.749	-43.2726	-11.2129	222.004	-49.262	-26.367	239.97	-47.7127	-45.7901	185.598	-12.2706	12.0945	188.991	-0.86417	48.0823	152.511	-0.395594	28.7342	
8	0.0666667	123.847	-14.5517	44.794	97.3325	-23.7664	37.798	79.3503	-30.6067	21.0141	58.465	-36.3278	12.2902	134.553	-23.2509	-39.4689	132.819	-26.9927	-65.0354	136.92	-32.4331	-87.5211	165.849	-21.8649	-45.1481	166.083	-28.6613	-76.678	167.999	-34.956	-100.142	188.481	-27.7322	-34.1052	194.497	-32.2979	-60.9832	199.513	-39.6312	-89.031	212.732	-42.5469	-12.1638	222.545	-48.7221	-29.2469	239.167	-48.5254	-43.3176	189.994	-11.7275	13.7603	192.125	-1.59358	45.1476	156.139	-0.700063	29.5788	
9	0.075	122.162	-11.5849	49.4662	96.7286	-23.9121	37.2463	78.0583	-29.52	21.187	57.58	-35.2222	10.2241	136.818	-22.0765	-39.3855	131.45	-26.3826	-61.5005	135.982	-32.406	-90.3729	162.689	-20.3213	-47.8735	165.423	-27.418	-76.2881	166.929	-32.7988	-100.901	189.463	-27.137	-34.0996	193.335	-31.2777	-61.0581	197.498	-38.5506	-87.3579	214.606	-42.4241	-11.3204	223.354	-47.6582	-28.1899	235.95	-45.7083	-47.5495	184.74	-12.3936	16.7905	191.685	-1.94461	44.3635	158.123	1.62855	29.8466	
10	0.0833333	124.645	-12.7445	45.7241	95.0719	-22.5738	35.1445	75.1585	-29.7137	20.1099	57.9649	-36.6032	8.32422	135.123	-20.7842	-35.9291	131.881	-26.0647	-65.9851	139.491	-31.3463	-88.3002	165.41	-21.1139	-47.0597	168.167	-25.9917	-72.7559	169.395	-33.0687	-101.443	191.707	-27.3523	-37.9405	195.245	-30.7844	-62.1976	198.331	-38.3366	-87.4079	215.177	-43.0855	-11.8495	222.924	-47.6226	-29.1867	237.927	-46.2044	-51.0193	185.587	-11.4242	18.0359	190.978	0.791554	47.6966	157.103	-0.568251	30.4371	
11	0.0916667	124.736	-11.2139	50.1884	101.352	-22.5283	35.6268	76.5538	-28.6857	16.1853	56.6485	-34.4678	6.96859	134.089	-19.8383	-38.5924	134.816	-24.4612	-65.5587	137.304	-30.2549	-91.3224	163.439	-18.9065	-44.2634	167.002	-24.2601	-74.7005	166.571	-29.9315	-102.457	191.559	-25.5309	-37.7324	196.642	-30.3726	-62.4451	197.544	-38.8078	-90.1407	212.55	-41.6108	-17.9679	225.176	-48.1233	-32.8172	237.458	-49.5546	-51.381	188.779	-11.1844	12.6364	191.401	0.444498	46.0905	154.083	0.51514	26.3543	
12	0.1	123.375	-9.31335	49.5916	100.946	-21.2655	35.863	80.4213	-27.6816	20.8158	60.7978	-33.4289	9.70534	134.114	-17.0391	-40.4972	135.492	-22.773	-64.9103	134.461	-27.6654	-86.6084	164.113	-17.3713	-48.9583	169.257	-24.6992	-76.6469	169.968	-30.3453	-102.404	190.838	-25.5722	-39.1182	198.245	-32.1278	-65.9066	195.605	-40.2209	-90.1712	214.777	-41.7024	-16.9339	221.692	-49.624	-34.089	230.734	-56.1067	-56.3254	188.355	-8.05776	13.906	192.282	-0.150072	45.8544	156.274	4.37617	29.9614	
13	0.108333	127.905	-8.60327	46.2735	100.607	-19.9839	35.4426	82.4631	-26.3033	18.0012	62.6883	-33.0468	10.1888	139.075	-14.9861	-37.2591	137.808	-19.1457	-64.4575	136.854	-24.2067	-92.0778	170.058	-15.8459	-44.0109	169.628	-21.5061	-72.5375	171.164	-28.9477	-104.719	193.778	-26.8896	-39.804	191.555	-33.4908	-64.7124	194.832	-46.8507	-86.1833	214.005	-42.2689	-13.5443	220.184	-55.4682	-36.2782	220.136	-65.0037	-56.8068	189.498	-8.03506	17.5482	194.371	0.373978	45.1312	157.724	6.59526	30.4868	
14	0.116667	127.389	-5.10307	45.9062	99.403	-16.2239	37.0278	82.9835	-24.5018	16.9869	62.1132	-32.6453	2.51169	138.639	-8.99759	-41.0319	139.439	-15.4812	-67.2336	137.536	-20.2726	-89.9527	166.799	-13.4754	-46.0349	170.68	-19.9069	-72.3832	169.464	-28.3636	-104.14	193.623	-28.5717	-38.7809	191.646	-41.0771	-68.7148	185.252	-61.5332	-87.2733	210.161	-44.7115	-15.2279	216.371	-60.2863	-35.9799	203.384	-81.5635	-56.7233	194.341	-10.1157	15.9651	195.287	0.816558	47.0057	161.017	5.94777	27.0688	
15	0.125	127.959	-0.508194	44.3453	102.961	-15.1839	33.4787	84.2634	-23.2482	15.443	68.0658	-33.843	1.76354	140.69	-3.83072	-40.5507	139.064	-9.75326	-68.1504	138.759	-15.5925	-91.3639	168.723	-12.4718	-49.0143	165.963	-18.0964	-77.7518	165.617	-26.9253	-103.775	187.196	-29.0634	-41.8217	188.296	-47.7292	-65.8559	172.704	-75.3871	-75.8365	206.585	-48.9739	-18.3905	202.462	-69.0614	-37.6741	178.02	-88.5961	-44.4543	197.659	-10.4633	15.499	201.917	-1.89816	43.6041	165.274	8.36277	29.7395	
16	0.133333	132.974	0.576565	43.4652	102.66	-13.5654	30.2244	88.4157	-25.4561	7.8178	71.9206	-38.5064	-5.32302	143.152	-0.0839605	-42.444	140.688	-4.99304	-68.0572	144.146	-15.709	-94.4651	168.295	-9.67056	-47.1892	165.313	-17.1694	-76.5677	166.19	-31.08	-103.78	182.871	-32.3872	-39.6984	170.591	-58.5493	-63.2158	150.331	-82.8626	-54.7698	199.415	-53.7191	-19.1079	180.559	-76.1916	-33.7365	152.888	-86.0654	-23.5708	196.702	-10.7775	13.8095	203.958	-3.29975	45.17	169.185	9.51501	29.1937	
17	0.141667	132.909	5.61369	40.1314	106.882	-14.3263	24.4302	89.1069	-25.3237	8.58076	77.1964	-40.703	-6.84126	147.529	0.955414	-44.4035	145.389	-5.37789	-69.7338	144.223	-15.6713	-92.6463	169.646	-12.9491	-52.078	164.647	-20.8581	-81.3303	157.913	-31.0232	-107.18	173.18	-38.6492	-44.3178	153.59	-68.3482	-52.6682	134.55	-77.8501	-31.8336	184.854	-60.3237	-23.5427	161.212	-78.806	-23.6967	138.931	-79.9973	-3.14629	198.412	-14.2129	10.2796	205.889	-6.29241	44.2925	170.658	12.5294	26.8465	
18	0.15	136.118	10.7347	42.474	108.243	-10.9677	22.6255	91.8547	-24.9306	6.5765	82.1669	-45.0667	-11.8771	147.715	4.64348	-43.6418	146.371	-4.31213	-68.0119	145.581	-17.7845	-94.988	167.381	-12.2488	-54.54	163.52	-22.6432	-77.8492	155.928	-36.845	-107.347	169.868	-46.1417	-40.397	141.617	-66.8841	-44.5391	126.004	-69.3964	-12.8045	176.279	-63.4131	-18.8921	146.08	-74.4235	-11.5485	134.394	-65.137	12.0322	195.536	-15.9684	6.84124	203.697	-10.7108	40.9065	178.502	11.2723	23.7727	
19	0.158333	141.815	14.9131	37.7935	113.483	-6.05161	19.7264	99.7254	-21.8881	4.13172	91.4459	-45.6728	-12.7786	151.281	5.02498	-42.3656	146.588	-3.31627	-69.1133	141.598	-13.1986	-91.5684	169.718	-18.7945	-54.145	159.925	-25.5876	-79.8146	149.264	-36.5943	-107.292	157.709	-49.7532	-39.8411	127.228	-61.3134	-33.0777	122.68	-55.3032	1.87948	165.332	-63.0238	-14.2902	137.088	-68.5874	-2.43191	133.459	-45.3324	23.257	195.445	-20.5786	4.34018	207.287	-16.5106	37.21	185.096	9.67073	24.2343	
